<svg width="72" height="72" viewBox="0 0 72 72" fill="none" xmlns="http://www.w3.org/2000/svg">
<g clip-path="url(#clip0_174_666)">
<mask id="mask0_174_666" style="mask-type:luminance" maskUnits="userSpaceOnUse" x="7" y="7" width="57" height="57">
<path d="M35.5873 63.8433C51.1928 63.8433 63.8435 51.1926 63.8435 35.5871C63.8435 19.9816 51.1928 7.33081 35.5873 7.33081C19.9818 7.33081 7.33105 19.9816 7.33105 35.5871C7.33105 51.1926 19.9818 63.8433 35.5873 63.8433Z" fill="white"/>
</mask>
<g mask="url(#mask0_174_666)">
<path d="M35.986 33.2099C33.3099 29.7508 30.6764 26.2633 28.0714 22.7473C25.4665 19.2312 22.9042 15.6868 20.3846 12.128C18.9611 10.1209 17.5661 8.11381 16.1711 6.10669C15.986 5.83622 15.3312 6.10669 15.5447 6.40562C18.0216 10.007 20.5554 13.58 23.1035 17.1245C25.6658 20.669 28.2565 24.185 30.89 27.6725C32.3704 29.6227 33.8508 31.5729 35.3597 33.5231C35.559 33.7651 36.2138 33.4946 35.986 33.2099Z" fill="#FF4D00"/>
</g>
<mask id="mask1_174_666" style="mask-type:luminance" maskUnits="userSpaceOnUse" x="7" y="7" width="57" height="57">
<path d="M35.5873 63.8433C51.1928 63.8433 63.8435 51.1926 63.8435 35.5871C63.8435 19.9816 51.1928 7.33081 35.5873 7.33081C19.9818 7.33081 7.33105 19.9816 7.33105 35.5871C7.33105 51.1926 19.9818 63.8433 35.5873 63.8433Z" fill="white"/>
</mask>
<g mask="url(#mask1_174_666)">
<path d="M35.686 34.0214C34.9031 30.2207 33.9779 26.4485 32.9245 22.7047C31.8711 18.9609 30.6896 15.2599 29.3658 11.6157C28.6255 9.55168 27.8426 7.51609 27.017 5.48051C26.9601 5.35239 26.8462 5.23851 26.7465 5.13887C26.7038 5.09616 26.6469 5.01075 26.59 4.99652C26.59 4.99652 26.5188 4.95381 26.5472 4.99652C28.0134 8.59794 29.3373 12.2421 30.5473 15.9431C31.743 19.63 32.8248 23.3738 33.7501 27.146C34.2768 29.267 34.7608 31.4022 35.2021 33.5517C35.2305 33.6798 35.3871 33.8079 35.4725 33.8933C35.5152 33.9076 35.686 34.0642 35.686 34.0214Z" fill="#FF4D00"/>
</g>
<mask id="mask2_174_666" style="mask-type:luminance" maskUnits="userSpaceOnUse" x="7" y="7" width="57" height="57">
<path d="M35.5873 63.8433C51.1928 63.8433 63.8435 51.1926 63.8435 35.5871C63.8435 19.9816 51.1928 7.33081 35.5873 7.33081C19.9818 7.33081 7.33105 19.9816 7.33105 35.5871C7.33105 51.1926 19.9818 63.8433 35.5873 63.8433Z" fill="white"/>
</mask>
<g mask="url(#mask2_174_666)">
<path d="M36.3982 33.7366C36.3982 30.2775 36.2985 26.8184 36.1277 23.3736C35.9426 19.9288 35.6722 16.4697 35.3163 13.0391C35.117 11.1031 34.875 9.15296 34.6188 7.23125C34.5903 7.06043 34.448 6.96078 34.2914 6.90385C34.206 6.87538 33.9355 6.84691 33.9498 7.01772C34.4053 10.4483 34.7896 13.8789 35.0601 17.3238C35.3448 20.7686 35.5298 24.2277 35.6437 27.6725C35.7007 29.6227 35.7291 31.5729 35.7291 33.5231C35.7291 33.7935 36.3982 34.0355 36.3982 33.7366Z" fill="#FF4D00"/>
</g>
<mask id="mask3_174_666" style="mask-type:luminance" maskUnits="userSpaceOnUse" x="7" y="7" width="57" height="57">
<path d="M35.5873 63.8433C51.1928 63.8433 63.8435 51.1926 63.8435 35.5871C63.8435 19.9816 51.1928 7.33081 35.5873 7.33081C19.9818 7.33081 7.33105 19.9816 7.33105 35.5871C7.33105 51.1926 19.9818 63.8433 35.5873 63.8433Z" fill="white"/>
</mask>
<g mask="url(#mask3_174_666)">
<path d="M36.6544 33.5944C37.5085 30.477 38.2772 27.3311 38.9747 24.1709C39.6722 21.0108 40.2843 17.8364 40.811 14.6335C41.1099 12.8257 41.3804 11.0321 41.6366 9.21006C41.6793 8.92536 40.9818 9.01077 40.9391 9.23853C40.4978 12.4414 39.9712 15.6442 39.3733 18.8186C38.7754 21.993 38.0921 25.1674 37.3235 28.3133C36.8964 30.0926 36.4409 31.8578 35.9569 33.6229C35.9 33.8933 36.5975 33.8364 36.6544 33.5944Z" fill="#FF4D00"/>
</g>
<mask id="mask4_174_666" style="mask-type:luminance" maskUnits="userSpaceOnUse" x="7" y="7" width="57" height="57">
<path d="M35.5873 63.8433C51.1928 63.8433 63.8435 51.1926 63.8435 35.5871C63.8435 19.9816 51.1928 7.33081 35.5873 7.33081C19.9818 7.33081 7.33105 19.9816 7.33105 35.5871C7.33105 51.1926 19.9818 63.8433 35.5873 63.8433Z" fill="white"/>
</mask>
<g mask="url(#mask4_174_666)">
<path d="M36.4834 33.9215C39.3161 30.4767 42.0777 26.9607 44.7681 23.402C47.4585 19.8432 50.0777 16.2276 52.64 12.5692C54.0777 10.5052 55.487 8.42686 56.882 6.33433C57.0813 6.0354 56.4265 5.76493 56.2557 6.0354C53.7788 9.7507 51.245 13.4233 48.6258 17.039C46.0065 20.6546 43.3304 24.2133 40.583 27.7294C39.0314 29.708 37.4656 31.6724 35.8713 33.6084C35.6293 33.8931 36.2841 34.1778 36.4834 33.9215Z" fill="#FF4D00"/>
</g>
<mask id="mask5_174_666" style="mask-type:luminance" maskUnits="userSpaceOnUse" x="7" y="7" width="57" height="57">
<path d="M35.5873 63.8433C51.1928 63.8433 63.8435 51.1926 63.8435 35.5871C63.8435 19.9816 51.1928 7.33081 35.5873 7.33081C19.9818 7.33081 7.33105 19.9816 7.33105 35.5871C7.33105 51.1926 19.9818 63.8433 35.5873 63.8433Z" fill="white"/>
</mask>
<g mask="url(#mask5_174_666)">
<path d="M36.5688 33.9787C38.6328 32.541 40.6969 31.1033 42.761 29.6798C44.8393 28.2421 46.9033 26.8043 48.9816 25.3524C51.0457 23.9147 53.1097 22.4769 55.1738 21.0534C57.2378 19.6157 59.3019 18.178 61.366 16.7545C63.4442 15.3168 65.5083 13.8791 67.5866 12.4271C67.8428 12.2563 68.0991 12.0712 68.341 11.9004C68.398 11.8577 68.583 11.7296 68.4834 11.6442C68.3838 11.573 68.1275 11.7296 68.0563 11.7865C65.9923 13.2243 63.9282 14.662 61.8642 16.0855C59.7859 17.5232 57.7218 18.9609 55.6435 20.4129C53.5795 21.8506 51.5154 23.2883 49.4514 24.7118C47.3873 26.1495 45.3232 27.5873 43.2592 29.0107C41.1809 30.4485 39.1168 31.8862 37.0385 33.3381C36.7823 33.509 36.5261 33.694 36.2841 33.8648C36.2271 33.9075 36.0421 34.0357 36.1417 34.1211C36.2414 34.1922 36.5118 34.0357 36.5688 33.9787Z" fill="#FF4D00"/>
</g>
<mask id="mask6_174_666" style="mask-type:luminance" maskUnits="userSpaceOnUse" x="7" y="7" width="57" height="57">
<path d="M35.5873 63.8433C51.1928 63.8433 63.8435 51.1926 63.8435 35.5871C63.8435 19.9816 51.1928 7.33081 35.5873 7.33081C19.9818 7.33081 7.33105 19.9816 7.33105 35.5871C7.33105 51.1926 19.9818 63.8433 35.5873 63.8433Z" fill="white"/>
</mask>
<g mask="url(#mask6_174_666)">
<path d="M35.9143 33.8504C38.3058 34.3486 40.7115 34.8183 43.1172 35.2454C45.5371 35.6724 47.957 36.071 50.3912 36.4411C52.8111 36.797 55.2311 37.1244 57.6652 37.4091C60.0994 37.6938 62.5336 37.95 64.9677 38.1493C67.4019 38.3628 69.8503 38.5337 72.2844 38.676C72.5834 38.6902 72.8966 38.7045 73.1955 38.7329C73.3521 38.7472 73.5229 38.6618 73.6652 38.5906C73.7079 38.5621 73.893 38.4625 73.7506 38.4482C71.3022 38.3201 68.8681 38.1493 66.4339 37.95C63.9997 37.7507 61.5656 37.5087 59.1314 37.224C56.6973 36.9536 54.2773 36.6404 51.8574 36.2845C49.4517 35.9429 47.046 35.5586 44.6403 35.1315C42.2346 34.7045 39.8289 34.249 37.4375 33.765C37.1385 33.708 36.8396 33.6369 36.5407 33.5799C36.4125 33.5514 36.2275 33.6369 36.1136 33.6796C36.0994 33.6938 35.8431 33.8361 35.9143 33.8504Z" fill="#FF4D00"/>
</g>
<mask id="mask7_174_666" style="mask-type:luminance" maskUnits="userSpaceOnUse" x="7" y="7" width="57" height="57">
<path d="M35.5873 63.8433C51.1928 63.8433 63.8435 51.1926 63.8435 35.5871C63.8435 19.9816 51.1928 7.33081 35.5873 7.33081C19.9818 7.33081 7.33105 19.9816 7.33105 35.5871C7.33105 51.1926 19.9818 63.8433 35.5873 63.8433Z" fill="white"/>
</mask>
<g mask="url(#mask7_174_666)">
<path d="M35.8429 33.7507C37.7361 36.3272 39.2165 39.1742 40.7539 41.9642C42.3624 44.8966 43.971 47.829 45.5795 50.7756C47.1881 53.7223 48.8108 56.6689 50.4194 59.6155C52.0279 62.5479 53.6365 65.4803 55.245 68.4269C56.8536 71.3593 58.4621 74.2917 60.0706 77.2383C60.2699 77.6084 60.4692 77.9643 60.6685 78.3344C60.7397 78.4767 60.8963 78.5906 61.0386 78.6475C61.0955 78.676 61.3091 78.7329 61.2379 78.5906C59.6294 75.644 58.0066 72.6974 56.398 69.7507C54.7895 66.8041 53.1667 63.8575 51.5582 60.9109C49.9496 57.9643 48.3269 55.0176 46.7183 52.071C45.1098 49.1244 43.487 46.1778 41.8785 43.2312C40.3411 40.4126 38.8749 37.5372 37.0528 34.8895C36.8251 34.5621 36.6115 34.2489 36.3696 33.9358C36.2699 33.8077 36.1133 33.6795 35.9567 33.6368C35.8144 33.5799 35.7575 33.6368 35.8429 33.7507Z" fill="#FF4D00"/>
</g>
<mask id="mask8_174_666" style="mask-type:luminance" maskUnits="userSpaceOnUse" x="7" y="7" width="57" height="57">
<path d="M35.5873 63.8433C51.1928 63.8433 63.8435 51.1926 63.8435 35.5871C63.8435 19.9816 51.1928 7.33081 35.5873 7.33081C19.9818 7.33081 7.33105 19.9816 7.33105 35.5871C7.33105 51.1926 19.9818 63.8433 35.5873 63.8433Z" fill="white"/>
</mask>
<g mask="url(#mask8_174_666)">
<path d="M35.9714 32.598C35.4305 37.2955 34.8895 42.0072 34.3629 46.7047C33.8219 51.388 33.2952 56.0571 32.7543 60.7403C32.4554 63.388 32.1422 66.0357 31.8433 68.6834C31.829 68.8257 31.9714 68.9823 32.0568 69.082C32.0853 69.1104 32.2988 69.3097 32.313 69.1959C32.854 64.4983 33.3949 59.7866 33.9216 55.0891C34.4625 50.4058 34.9892 45.7368 35.5301 41.0535C35.829 38.4058 36.1422 35.7581 36.4411 33.1104C36.4554 32.9681 36.313 32.8115 36.2276 32.7118C36.2134 32.6834 35.9856 32.4699 35.9714 32.598Z" fill="#FF4D00"/>
</g>
<mask id="mask9_174_666" style="mask-type:luminance" maskUnits="userSpaceOnUse" x="7" y="7" width="57" height="57">
<path d="M35.5873 63.8433C51.1928 63.8433 63.8435 51.1926 63.8435 35.5871C63.8435 19.9816 51.1928 7.33081 35.5873 7.33081C19.9818 7.33081 7.33105 19.9816 7.33105 35.5871C7.33105 51.1926 19.9818 63.8433 35.5873 63.8433Z" fill="white"/>
</mask>
<g mask="url(#mask9_174_666)">
<path d="M35.6151 33.6798C32.7824 37.0677 29.9923 40.4699 27.2165 43.9005C24.455 47.3169 21.7361 50.7475 19.0457 54.2065C17.5226 56.171 15.9994 58.1354 14.4905 60.0998C14.2913 60.356 14.9034 60.7261 15.1026 60.4699C17.7788 56.9681 20.4834 53.4806 23.2165 50.0357C25.9354 46.5909 28.697 43.1887 31.4728 39.7866C33.0528 37.8649 34.6329 35.9574 36.2272 34.05C36.3411 33.9218 36.156 33.7225 36.0422 33.6514C35.914 33.566 35.729 33.5517 35.6151 33.6798Z" fill="#FF4D00"/>
</g>
<mask id="mask10_174_666" style="mask-type:luminance" maskUnits="userSpaceOnUse" x="7" y="7" width="57" height="57">
<path d="M35.5873 63.8433C51.1928 63.8433 63.8435 51.1926 63.8435 35.5871C63.8435 19.9816 51.1928 7.33081 35.5873 7.33081C19.9818 7.33081 7.33105 19.9816 7.33105 35.5871C7.33105 51.1926 19.9818 63.8433 35.5873 63.8433Z" fill="white"/>
</mask>
<g mask="url(#mask10_174_666)">
<path d="M35.4726 33.5372C33.1808 34.4767 30.8747 35.3878 28.5544 36.2561C26.2341 37.1387 23.8854 37.9785 21.5366 38.8042C19.2021 39.6155 16.8533 40.3985 14.4904 41.1529C12.1274 41.9074 9.76437 42.6191 7.38715 43.3024C5.00992 43.9857 2.61846 44.6405 0.227001 45.2668C-0.071932 45.3522 -0.370865 45.4234 -0.684032 45.4945C-0.812146 45.523 -0.570153 45.7223 -0.541683 45.7365C-0.442039 45.8077 -0.256986 45.9216 -0.128872 45.8931C2.27682 45.281 4.65405 44.6405 7.04551 43.9572C9.43697 43.2739 11.8284 42.5622 14.1914 41.8219C16.5544 41.0817 18.9032 40.313 21.2519 39.5017C23.6007 38.6903 25.921 37.8646 28.2413 36.9963C30.5615 36.128 32.8676 35.2312 35.1594 34.3059C35.4441 34.192 35.743 34.0639 36.0277 33.9501C36.1416 33.9074 35.9139 33.7365 35.8854 33.7081C35.8 33.6227 35.6007 33.4803 35.4726 33.5372Z" fill="#FF4D00"/>
</g>
<mask id="mask11_174_666" style="mask-type:luminance" maskUnits="userSpaceOnUse" x="7" y="7" width="57" height="57">
<path d="M35.5873 63.8433C51.1928 63.8433 63.8435 51.1926 63.8435 35.5871C63.8435 19.9816 51.1928 7.33081 35.5873 7.33081C19.9818 7.33081 7.33105 19.9816 7.33105 35.5871C7.33105 51.1926 19.9818 63.8433 35.5873 63.8433Z" fill="white"/>
</mask>
<g mask="url(#mask11_174_666)">
<path d="M35.7299 33.21C31.2032 32.9395 26.6765 32.6548 22.1498 32.3844C17.6374 32.1139 13.1249 31.8292 8.59823 31.5587C6.05019 31.4022 3.51638 31.2456 0.968333 31.089C0.854454 31.0748 0.612461 31.1175 0.598226 31.274C0.583991 31.4306 0.840219 31.4876 0.939863 31.4876C5.46656 31.758 9.99325 32.0427 14.5199 32.3132C19.0324 32.5837 23.5449 32.8684 28.0716 33.1388C30.6196 33.2954 33.1534 33.452 35.7015 33.6086C35.8153 33.6228 36.0573 33.5801 36.0716 33.4235C36.0858 33.2812 35.8296 33.2242 35.7299 33.21Z" fill="#FF4D00"/>
</g>
<mask id="mask12_174_666" style="mask-type:luminance" maskUnits="userSpaceOnUse" x="7" y="7" width="57" height="57">
<path d="M35.5873 63.8433C51.1928 63.8433 63.8435 51.1926 63.8435 35.5871C63.8435 19.9816 51.1928 7.33081 35.5873 7.33081C19.9818 7.33081 7.33105 19.9816 7.33105 35.5871C7.33105 51.1926 19.9818 63.8433 35.5873 63.8433Z" fill="white"/>
</mask>
<g mask="url(#mask12_174_666)">
<path d="M36.5547 33.2813C32.7825 31.6158 28.8536 30.3062 24.9106 29.1104C20.8821 27.9005 16.8394 26.7617 12.7967 25.5944C10.4764 24.9254 8.15612 24.2563 5.8216 23.5873C5.67925 23.5446 5.72196 23.7154 5.76466 23.8008C5.8216 23.9289 5.96395 24.114 6.1063 24.1567C10.2487 25.3524 14.391 26.5482 18.5476 27.7297C22.5049 28.8685 26.4764 29.993 30.3768 31.3311C32.5689 32.0855 34.7184 32.9112 36.8394 33.8364C36.9818 33.9076 36.9248 33.6798 36.8964 33.6229C36.8252 33.4948 36.6971 33.3524 36.5547 33.2813Z" fill="#FF4D00"/>
</g>
<mask id="mask13_174_666" style="mask-type:luminance" maskUnits="userSpaceOnUse" x="7" y="7" width="57" height="57">
<path d="M35.5873 63.8433C51.1928 63.8433 63.8435 51.1926 63.8435 35.5871C63.8435 19.9816 51.1928 7.33081 35.5873 7.33081C19.9818 7.33081 7.33105 19.9816 7.33105 35.5871C7.33105 51.1926 19.9818 63.8433 35.5873 63.8433Z" fill="white"/>
</mask>
<g mask="url(#mask13_174_666)">
<path d="M36.7257 33.167C32.8966 30.8894 29.0674 28.5976 25.1812 26.4054C21.3236 24.2275 17.409 22.1207 13.409 20.2133C11.1599 19.1314 8.89654 18.1207 6.59049 17.1812C6.44814 17.1243 6.36273 17.2382 6.3912 17.3805C6.4339 17.5513 6.59049 17.6795 6.74707 17.7364C10.8467 19.4161 14.8325 21.3378 18.7613 23.4019C22.6759 25.4517 26.5051 27.6439 30.32 29.8788C32.4695 31.1314 34.6047 32.4126 36.74 33.6795C36.8538 33.7506 37.0104 33.7364 37.0247 33.5798C37.0247 33.409 36.8538 33.2524 36.7257 33.167Z" fill="#FF4D00"/>
</g>
<mask id="mask14_174_666" style="mask-type:luminance" maskUnits="userSpaceOnUse" x="7" y="7" width="57" height="57">
<path d="M35.5873 63.8433C51.1928 63.8433 63.8435 51.1926 63.8435 35.5871C63.8435 19.9816 51.1928 7.33081 35.5873 7.33081C19.9818 7.33081 7.33105 19.9816 7.33105 35.5871C7.33105 51.1926 19.9818 63.8433 35.5873 63.8433Z" fill="white"/>
</mask>
<g mask="url(#mask14_174_666)">
<path d="M36.1705 33.5658C31.8146 33.9786 27.4445 34.4341 23.0886 34.9181C18.7327 35.4021 14.3768 35.9288 10.0352 36.4982C7.5868 36.8113 5.12417 37.153 2.67577 37.4946C2.51919 37.5231 2.69 37.6654 2.74694 37.6939C2.88929 37.7793 3.06011 37.8362 3.2167 37.8078C7.55833 37.1957 11.9142 36.6263 16.2558 36.0996C20.5833 35.5729 24.9249 35.0747 29.2523 34.6192C31.7007 34.3629 34.1349 34.1209 36.5833 33.8932C36.7114 33.8789 36.7398 33.822 36.6402 33.7224C36.5406 33.6369 36.327 33.5515 36.1705 33.5658Z" fill="#FF4D00"/>
</g>
<mask id="mask15_174_666" style="mask-type:luminance" maskUnits="userSpaceOnUse" x="7" y="7" width="57" height="57">
<path d="M35.5873 63.8433C51.1928 63.8433 63.8435 51.1926 63.8435 35.5871C63.8435 19.9816 51.1928 7.33081 35.5873 7.33081C19.9818 7.33081 7.33105 19.9816 7.33105 35.5871C7.33105 51.1926 19.9818 63.8433 35.5873 63.8433Z" fill="white"/>
</mask>
<g mask="url(#mask15_174_666)">
<path d="M35.2744 33.5087C33.2104 34.8041 31.1606 36.1137 29.1392 37.4518C27.1036 38.7898 25.0965 40.1421 23.0894 41.5229C21.0823 42.9179 19.0894 44.3272 17.1107 45.7507C15.1463 47.1742 13.1961 48.6261 11.2602 50.0923C9.32424 51.5585 7.40253 53.0674 5.49506 54.5763C5.25306 54.7614 5.0253 54.9607 4.78331 55.1457C4.51285 55.3592 4.9826 55.9002 5.25306 55.6866C7.1463 54.1635 9.06801 52.6688 10.9897 51.1884C12.9257 49.708 14.8758 48.256 16.8403 46.8183C18.8189 45.3806 20.7976 43.9571 22.8047 42.5621C24.7976 41.1813 26.8189 39.8147 28.8403 38.4624C30.8616 37.1243 32.9114 35.8005 34.9613 34.5051C35.2175 34.3485 35.4737 34.1777 35.7299 34.0211C35.8723 33.9357 35.7727 33.6795 35.6872 33.5799C35.6018 33.4802 35.431 33.409 35.2744 33.5087Z" fill="#FF4D00"/>
</g>
<mask id="mask16_174_666" style="mask-type:luminance" maskUnits="userSpaceOnUse" x="7" y="7" width="57" height="57">
<path d="M35.5873 63.8433C51.1928 63.8433 63.8435 51.1926 63.8435 35.5871C63.8435 19.9816 51.1928 7.33081 35.5873 7.33081C19.9818 7.33081 7.33105 19.9816 7.33105 35.5871C7.33105 51.1926 19.9818 63.8433 35.5873 63.8433Z" fill="white"/>
</mask>
<g mask="url(#mask16_174_666)">
<path d="M35.6014 33.0535C35.0604 35.6015 34.0071 37.993 32.9394 40.3417C31.8434 42.7616 30.7757 45.1816 29.7508 47.63C28.7259 50.0926 27.7295 52.5552 26.79 55.0463C25.8362 57.5375 24.9394 60.0428 24.0711 62.5624C23.2028 65.0819 22.3772 67.6158 21.5942 70.1638C21.4946 70.477 21.3949 70.7901 21.3095 71.1033C21.2099 71.4307 21.7508 71.815 21.8789 71.388C22.6476 68.84 23.459 66.3061 24.3273 63.7866C25.1814 61.267 26.0782 58.7616 27.0177 56.2705C27.9572 53.7794 28.9394 51.3026 29.9501 48.8399C30.975 46.3773 32.0284 43.9431 33.1245 41.5232C34.1921 39.1602 35.2882 36.783 35.9572 34.2634C36.0426 33.9502 36.1138 33.6371 36.1708 33.3239C36.2419 32.9965 35.6868 32.6264 35.6014 33.0535Z" fill="#FF4D00"/>
</g>
<mask id="mask17_174_666" style="mask-type:luminance" maskUnits="userSpaceOnUse" x="7" y="7" width="57" height="57">
<path d="M35.5873 63.8433C51.1928 63.8433 63.8435 51.1926 63.8435 35.5871C63.8435 19.9816 51.1928 7.33081 35.5873 7.33081C19.9818 7.33081 7.33105 19.9816 7.33105 35.5871C7.33105 51.1926 19.9818 63.8433 35.5873 63.8433Z" fill="white"/>
</mask>
<g mask="url(#mask17_174_666)">
<path d="M35.6294 33.8077C35.6294 39.0176 35.7006 44.2134 35.8429 49.4233C35.9853 54.6048 36.213 59.7863 36.512 64.9536C36.6828 67.8575 36.8821 70.7614 37.0956 73.6511C37.1241 73.9785 37.8216 73.9927 37.7931 73.6226C37.4088 68.4554 37.0956 63.2881 36.8536 58.1066C36.6258 52.9536 36.4693 47.8006 36.3838 42.6475C36.3411 39.7436 36.3127 36.8255 36.3269 33.9216C36.3269 33.7507 36.1846 33.6369 36.0137 33.6084C35.8999 33.5799 35.6294 33.6226 35.6294 33.8077Z" fill="#FF4D00"/>
</g>
<mask id="mask18_174_666" style="mask-type:luminance" maskUnits="userSpaceOnUse" x="7" y="7" width="57" height="57">
<path d="M35.5873 63.8433C51.1928 63.8433 63.8435 51.1926 63.8435 35.5871C63.8435 19.9816 51.1928 7.33081 35.5873 7.33081C19.9818 7.33081 7.33105 19.9816 7.33105 35.5871C7.33105 51.1926 19.9818 63.8433 35.5873 63.8433Z" fill="white"/>
</mask>
<g mask="url(#mask18_174_666)">
<path d="M35.3024 32.5694C35.8149 35.3168 36.3416 38.0641 36.8682 40.7972C37.3949 43.5445 37.9501 46.2776 38.491 49.0107C39.0462 51.7438 39.6156 54.4769 40.185 57.21C40.7544 59.9431 41.338 62.6762 41.9359 65.4093C42.5337 68.1424 43.1316 70.8613 43.7579 73.5944C43.8291 73.936 43.9145 74.2776 43.9857 74.605C44.0569 74.9324 44.6974 74.6478 44.6405 74.3631C44.0284 71.6442 43.4163 68.9111 42.8184 66.1922C42.2206 63.4591 41.6369 60.7403 41.0533 58.0072C40.4697 55.2741 39.9145 52.541 39.3593 49.8079C38.8042 47.0748 38.2633 44.3275 37.7223 41.5944C37.1814 38.8613 36.669 36.1139 36.1423 33.3666C36.0853 33.0249 36.0142 32.6833 35.9572 32.3417C35.886 32 35.2455 32.2847 35.3024 32.5694Z" fill="#FF4D00"/>
</g>
<mask id="mask19_174_666" style="mask-type:luminance" maskUnits="userSpaceOnUse" x="7" y="7" width="57" height="57">
<path d="M35.5873 63.8433C51.1928 63.8433 63.8435 51.1926 63.8435 35.5871C63.8435 19.9816 51.1928 7.33081 35.5873 7.33081C19.9818 7.33081 7.33105 19.9816 7.33105 35.5871C7.33105 51.1926 19.9818 63.8433 35.5873 63.8433Z" fill="white"/>
</mask>
<g mask="url(#mask19_174_666)">
<path d="M35.7577 33.2097C36.7542 35.4873 37.7648 37.7649 38.7613 40.0425C39.7577 42.3058 40.7542 44.5692 41.7506 46.8467C42.747 49.1243 43.7577 51.4019 44.7542 53.6795C45.7506 55.9428 46.7471 58.2062 47.7435 60.4838C48.7399 62.7613 49.7506 65.0389 50.7471 67.3165C50.8752 67.6012 50.9891 67.8859 51.1172 68.1564C51.2026 68.3556 51.9001 68.3841 51.8147 68.1848C50.8182 65.9072 49.8076 63.6297 48.8111 61.3521C47.8147 59.0887 46.8182 56.8254 45.8218 54.5478C44.8253 52.2702 43.8147 49.9927 42.8182 47.7151C41.8218 45.4517 40.8253 43.1884 39.8289 40.9108C38.8325 38.6332 37.8218 36.3556 36.8253 34.078C36.6972 33.7934 36.5833 33.5087 36.4552 33.2382C36.3698 33.0389 35.6723 33.0104 35.7577 33.2097Z" fill="#FF4D00"/>
</g>
<mask id="mask20_174_666" style="mask-type:luminance" maskUnits="userSpaceOnUse" x="7" y="7" width="57" height="57">
<path d="M35.5873 63.8433C51.1928 63.8433 63.8435 51.1926 63.8435 35.5871C63.8435 19.9816 51.1928 7.33081 35.5873 7.33081C19.9818 7.33081 7.33105 19.9816 7.33105 35.5871C7.33105 51.1926 19.9818 63.8433 35.5873 63.8433Z" fill="white"/>
</mask>
<g mask="url(#mask20_174_666)">
<path d="M35.2884 32.8968C36.9397 35.089 38.6194 37.2527 40.3276 39.4164C42.0358 41.5801 43.7724 43.7438 45.5375 45.8648C47.2884 47.9858 49.0678 50.0926 50.8614 52.1851C52.6692 54.2776 54.4913 56.3559 56.3276 58.42C58.1639 60.4698 60.0286 62.5054 61.9077 64.5125C62.1354 64.7545 62.3632 65.0107 62.6052 65.2527C62.7048 65.3666 62.9183 65.4093 63.0607 65.4093C63.1319 65.4093 63.3311 65.3951 63.2173 65.2812C61.3383 63.2741 59.4735 61.2527 57.623 59.2029C55.7867 57.1673 53.9788 55.1033 52.1852 53.0392C50.3916 50.9609 48.6123 48.8541 46.8471 46.7331C45.0963 44.6264 43.3738 42.4911 41.6656 40.3417C39.9432 38.178 38.2493 36 36.5838 33.8079C36.3845 33.5374 36.171 33.2669 35.9717 32.9965C35.8863 32.8826 35.7155 32.8257 35.5731 32.8114C35.5446 32.7972 35.2172 32.7972 35.2884 32.8968Z" fill="#FF4D00"/>
</g>
<mask id="mask21_174_666" style="mask-type:luminance" maskUnits="userSpaceOnUse" x="7" y="7" width="57" height="57">
<path d="M35.5873 63.8433C51.1928 63.8433 63.8435 51.1926 63.8435 35.5871C63.8435 19.9816 51.1928 7.33081 35.5873 7.33081C19.9818 7.33081 7.33105 19.9816 7.33105 35.5871C7.33105 51.1926 19.9818 63.8433 35.5873 63.8433Z" fill="white"/>
</mask>
<g mask="url(#mask21_174_666)">
<path d="M35.8856 32.8681C37.7219 34.7614 39.6436 36.5549 41.6365 38.2631C43.6294 39.9856 45.6792 41.6226 47.7717 43.2311C49.8643 44.8539 51.9853 46.434 54.1205 47.9998C56.2557 49.5799 58.391 51.1457 60.4977 52.7543C62.5903 54.3486 64.6543 55.9713 66.6614 57.6653C66.9034 57.8788 67.1596 58.0781 67.4016 58.2916C67.5155 58.3913 67.6863 58.4624 67.8002 58.3201C67.8999 58.1777 67.8002 57.9642 67.6863 57.8646C65.6792 56.1422 63.6009 54.4909 61.5084 52.8824C59.4159 51.2738 57.2949 49.6937 55.1739 48.1279C53.0529 46.5621 50.9319 44.9962 48.8251 43.3877C46.7326 41.7934 44.6685 40.1564 42.6614 38.4482C40.6543 36.7542 38.7041 34.9749 36.8536 33.1101C36.6258 32.8823 36.3981 32.6546 36.1703 32.4126C36.0707 32.313 35.8714 32.256 35.7717 32.3841C35.6579 32.5549 35.786 32.7685 35.8856 32.8681Z" fill="#FF4D00"/>
</g>
<mask id="mask22_174_666" style="mask-type:luminance" maskUnits="userSpaceOnUse" x="7" y="7" width="57" height="57">
<path d="M35.5873 63.8433C51.1928 63.8433 63.8435 51.1926 63.8435 35.5871C63.8435 19.9816 51.1928 7.33081 35.5873 7.33081C19.9818 7.33081 7.33105 19.9816 7.33105 35.5871C7.33105 51.1926 19.9818 63.8433 35.5873 63.8433Z" fill="white"/>
</mask>
<g mask="url(#mask22_174_666)">
<path d="M35.0883 33.3807C37.2805 35.032 39.6862 36.3843 42.1773 37.5515C44.6826 38.733 47.2876 39.7295 49.8784 40.6975C52.6684 41.7224 55.4727 42.7046 58.2912 43.6156C61.1097 44.5266 63.9282 45.395 66.7752 46.1921C69.6222 46.9893 72.4976 47.7437 75.373 48.4412C75.7289 48.5266 76.099 48.6121 76.4549 48.6975C76.5972 48.7259 76.7965 48.669 76.7965 48.4982C76.7965 48.3131 76.5972 48.2135 76.4549 48.185C73.5937 47.516 70.7467 46.79 67.914 46.0071C65.0955 45.2242 62.2769 44.3843 59.4869 43.4875C56.6826 42.5907 53.8926 41.637 51.131 40.6263C48.5118 39.6725 45.8926 38.6903 43.3446 37.5515C40.8677 36.4412 38.4762 35.1743 36.2556 33.6085C35.9709 33.4092 35.7004 33.2099 35.4157 32.9964C35.3018 32.911 35.0456 32.8825 34.946 33.0106C34.8463 33.153 34.9887 33.3095 35.0883 33.3807Z" fill="#FF4D00"/>
</g>
<mask id="mask23_174_666" style="mask-type:luminance" maskUnits="userSpaceOnUse" x="7" y="7" width="57" height="57">
<path d="M35.5873 63.8433C51.1928 63.8433 63.8435 51.1926 63.8435 35.5871C63.8435 19.9816 51.1928 7.33081 35.5873 7.33081C19.9818 7.33081 7.33105 19.9816 7.33105 35.5871C7.33105 51.1926 19.9818 63.8433 35.5873 63.8433Z" fill="white"/>
</mask>
<g mask="url(#mask23_174_666)">
<path d="M35.5727 33.6368C38.0922 34.7329 40.6545 35.7436 43.2453 36.6689C45.836 37.5941 48.4552 38.4198 51.1029 39.2027C53.7506 39.9714 56.4125 40.6831 59.0887 41.3521C61.7649 42.0212 64.4552 42.6475 67.1456 43.2454C69.836 43.8432 72.5407 44.4269 75.2453 44.9963C75.5869 45.0674 75.9143 45.1386 76.256 45.2098C76.4268 45.2383 76.5691 45.1102 76.5549 44.9393C76.5407 44.74 76.3556 44.6404 76.1848 44.5977C73.5086 44.0283 70.8182 43.4589 68.1421 42.861C65.4659 42.2632 62.7755 41.6511 60.1136 40.9963C57.4374 40.3415 54.7755 39.644 52.1278 38.8753C49.4944 38.1208 46.8752 37.3094 44.2986 36.4126C41.7079 35.5158 39.1599 34.5336 36.6403 33.466C36.3271 33.3379 36.0139 33.1956 35.7008 33.0532C35.5584 32.982 35.3449 33.0674 35.3164 33.224C35.2453 33.4375 35.4161 33.5657 35.5727 33.6368Z" fill="#FF4D00"/>
</g>
<mask id="mask24_174_666" style="mask-type:luminance" maskUnits="userSpaceOnUse" x="7" y="7" width="57" height="57">
<path d="M35.5873 63.8433C51.1928 63.8433 63.8435 51.1926 63.8435 35.5871C63.8435 19.9816 51.1928 7.33081 35.5873 7.33081C19.9818 7.33081 7.33105 19.9816 7.33105 35.5871C7.33105 51.1926 19.9818 63.8433 35.5873 63.8433Z" fill="white"/>
</mask>
<g mask="url(#mask24_174_666)">
<path d="M33.4234 33.6939C38.9607 33.2669 44.4981 32.911 50.0355 32.5979C55.5871 32.2989 61.1244 32.0427 66.676 31.8719C69.7935 31.7722 72.8967 31.6868 76.0141 31.6157C76.4127 31.6014 76.1565 30.9609 75.8576 30.9751C70.2775 31.089 64.7116 31.274 59.1316 31.5018C53.5942 31.7438 48.0568 32.0285 42.5337 32.3843C39.402 32.5836 36.2703 32.8114 33.1244 33.0534C32.9536 33.0676 32.9821 33.3238 33.0248 33.4235C33.096 33.5801 33.2383 33.7082 33.4234 33.6939Z" fill="#FF4D00"/>
</g>
<mask id="mask25_174_666" style="mask-type:luminance" maskUnits="userSpaceOnUse" x="7" y="7" width="57" height="57">
<path d="M35.5873 63.8433C51.1928 63.8433 63.8435 51.1926 63.8435 35.5871C63.8435 19.9816 51.1928 7.33081 35.5873 7.33081C19.9818 7.33081 7.33105 19.9816 7.33105 35.5871C7.33105 51.1926 19.9818 63.8433 35.5873 63.8433Z" fill="white"/>
</mask>
<g mask="url(#mask25_174_666)">
<path d="M36.5842 33.4659C41.4241 33.5513 46.2639 33.6367 51.1038 33.7363C55.9152 33.8217 60.7266 33.9071 65.538 34.0068C68.2568 34.0495 70.9614 34.1064 73.6803 34.1491C73.7372 34.1491 73.4952 34.0068 73.4668 34.0068C73.3387 33.9498 73.1963 33.8644 73.054 33.8644C68.2141 33.779 63.3743 33.6936 58.5344 33.594C53.723 33.5086 48.9116 33.4231 44.1002 33.3235C41.3813 33.2808 38.6767 33.2239 35.9579 33.1812C35.9009 33.1812 36.1429 33.3235 36.1714 33.3235C36.2995 33.3804 36.4418 33.4516 36.5842 33.4659Z" fill="#FF4D00"/>
</g>
<mask id="mask26_174_666" style="mask-type:luminance" maskUnits="userSpaceOnUse" x="7" y="7" width="57" height="57">
<path d="M35.5873 63.8433C51.1928 63.8433 63.8435 51.1926 63.8435 35.5871C63.8435 19.9816 51.1928 7.33081 35.5873 7.33081C19.9818 7.33081 7.33105 19.9816 7.33105 35.5871C7.33105 51.1926 19.9818 63.8433 35.5873 63.8433Z" fill="white"/>
</mask>
<g mask="url(#mask26_174_666)">
<path d="M35.046 34.1641C39.1029 32.8688 43.1741 31.6446 47.2738 30.5058C51.3734 29.367 55.4873 28.3136 59.6296 27.3599C61.9784 26.8189 64.3129 26.2922 66.6759 25.794C66.7898 25.7656 66.9891 25.6944 66.9321 25.5378C66.8752 25.3954 66.619 25.367 66.4908 25.3812C62.2916 26.2638 58.1207 27.2317 53.9641 28.2709C49.8218 29.3243 45.6937 30.4488 41.594 31.6588C39.288 32.3421 36.9962 33.0538 34.7043 33.7798C34.5762 33.8225 34.4766 33.9364 34.5762 34.0645C34.6616 34.2068 34.9036 34.2068 35.046 34.1641Z" fill="#FF4D00"/>
</g>
<mask id="mask27_174_666" style="mask-type:luminance" maskUnits="userSpaceOnUse" x="7" y="7" width="57" height="57">
<path d="M35.5873 63.8433C51.1928 63.8433 63.8435 51.1926 63.8435 35.5871C63.8435 19.9816 51.1928 7.33081 35.5873 7.33081C19.9818 7.33081 7.33105 19.9816 7.33105 35.5871C7.33105 51.1926 19.9818 63.8433 35.5873 63.8433Z" fill="white"/>
</mask>
<g mask="url(#mask27_174_666)">
<path d="M37.1244 34.078C39.1885 32.1705 41.3522 30.3627 43.5729 28.6545C45.7935 26.9321 48.0853 25.2951 50.3914 23.6866C52.7116 22.078 55.0462 20.5122 57.3807 18.9321C59.7152 17.352 62.0355 15.7577 64.3273 14.1207C66.6191 12.4837 68.854 10.7755 71.0319 8.99615C71.3024 8.76839 71.5729 8.54063 71.8433 8.31288C71.9287 8.2417 71.5302 7.67231 71.5159 7.68654C69.3665 9.50861 67.1316 11.2168 64.854 12.8823C62.5764 14.5478 60.2561 16.1421 57.9216 17.7221C55.5871 19.3022 53.2526 20.868 50.9181 22.4766C48.5978 24.0709 46.306 25.6937 44.0568 27.4019C41.822 29.0958 39.6298 30.8752 37.5515 32.7542C37.2953 32.9962 37.0248 33.2239 36.7686 33.4659C36.7116 33.5371 37.1244 34.078 37.1244 34.078Z" fill="#FF4D00"/>
</g>
<mask id="mask28_174_666" style="mask-type:luminance" maskUnits="userSpaceOnUse" x="7" y="7" width="57" height="57">
<path d="M35.5873 63.8433C51.1928 63.8433 63.8435 51.1926 63.8435 35.5871C63.8435 19.9816 51.1928 7.33081 35.5873 7.33081C19.9818 7.33081 7.33105 19.9816 7.33105 35.5871C7.33105 51.1926 19.9818 63.8433 35.5873 63.8433Z" fill="white"/>
</mask>
<g mask="url(#mask28_174_666)">
<path d="M36.9395 33.9077C42.7616 34.3205 48.5836 34.6194 54.4057 34.8472C60.2278 35.0607 66.0641 35.1888 71.9004 35.2173C75.1744 35.2315 78.4484 35.2173 81.7225 35.1746C82.0072 35.1746 81.7652 34.5055 81.5089 34.5198C75.6726 34.6052 69.8506 34.5767 64.0143 34.4771C58.178 34.3632 52.3559 34.1639 46.5338 33.865C43.2598 33.6941 40 33.4949 36.726 33.2671C36.4555 33.2244 36.6833 33.8934 36.9395 33.9077Z" fill="#FF4D00"/>
</g>
<mask id="mask29_174_666" style="mask-type:luminance" maskUnits="userSpaceOnUse" x="7" y="7" width="57" height="57">
<path d="M35.5873 63.8433C51.1928 63.8433 63.8435 51.1926 63.8435 35.5871C63.8435 19.9816 51.1928 7.33081 35.5873 7.33081C19.9818 7.33081 7.33105 19.9816 7.33105 35.5871C7.33105 51.1926 19.9818 63.8433 35.5873 63.8433Z" fill="white"/>
</mask>
<g mask="url(#mask29_174_666)">
<path d="M36.3127 33.338C35.003 32.0569 33.6934 30.7757 32.3269 29.5515C30.9603 28.3273 29.5226 27.1743 28.0422 26.0782C26.5618 24.9821 25.0671 23.9287 23.6294 22.7899C22.2201 21.6654 20.8678 20.4554 19.5297 19.2597C18.0208 17.9074 16.4977 16.5408 14.9034 15.2597C14.7895 15.1743 14.7041 15.2455 14.7041 15.3736C14.7183 15.5444 14.8322 15.7152 14.9603 15.8149C17.7646 18.064 20.3269 20.5978 23.1169 22.8896C25.9354 25.1956 29.0102 27.1601 31.7575 29.5658C33.3091 30.9181 34.7753 32.37 36.2557 33.8077C36.3269 33.8789 36.4692 33.9643 36.5119 33.8077C36.5404 33.6512 36.4123 33.4376 36.3127 33.338Z" fill="#FF4D00"/>
</g>
<mask id="mask30_174_666" style="mask-type:luminance" maskUnits="userSpaceOnUse" x="7" y="7" width="57" height="57">
<path d="M35.5873 63.8433C51.1928 63.8433 63.8435 51.1926 63.8435 35.5871C63.8435 19.9816 51.1928 7.33081 35.5873 7.33081C19.9818 7.33081 7.33105 19.9816 7.33105 35.5871C7.33105 51.1926 19.9818 63.8433 35.5873 63.8433Z" fill="white"/>
</mask>
<g mask="url(#mask30_174_666)">
<path d="M36.1704 33.0248C35.2593 29.1672 34.4479 25.2811 33.7504 21.3665C33.0672 17.4946 32.5405 13.5942 31.8999 9.72233C31.544 7.54439 31.1312 5.38069 30.6045 3.23122C30.5618 3.0604 30.4479 2.90382 30.2629 2.86111C30.1205 2.81841 29.9782 2.91805 30.0209 3.07464C30.9604 6.88959 31.5298 10.7757 32.0992 14.6618C32.6828 18.5622 33.3519 22.4625 34.1348 26.3344C34.5761 28.5124 35.06 30.6903 35.5725 32.8682C35.6152 33.0391 35.7291 33.1957 35.9141 33.2384C36.0707 33.2811 36.2131 33.1814 36.1704 33.0248Z" fill="#FF4D00"/>
</g>
<mask id="mask31_174_666" style="mask-type:luminance" maskUnits="userSpaceOnUse" x="7" y="7" width="57" height="57">
<path d="M35.5873 63.8433C51.1928 63.8433 63.8435 51.1926 63.8435 35.5871C63.8435 19.9816 51.1928 7.33081 35.5873 7.33081C19.9818 7.33081 7.33105 19.9816 7.33105 35.5871C7.33105 51.1926 19.9818 63.8433 35.5873 63.8433Z" fill="white"/>
</mask>
<g mask="url(#mask31_174_666)">
<path d="M36.9678 33.466C36.5265 29.6084 36.6973 25.7365 37.0817 21.8788C37.466 18.0069 38.0496 14.1493 38.4197 10.2632C38.6333 8.08522 38.7614 5.90728 38.7614 3.72935C38.7614 3.55853 38.6617 3.38771 38.5336 3.3023C38.4482 3.24536 38.2489 3.18842 38.2489 3.35924C38.2489 7.27383 37.8077 11.1742 37.3237 15.0603C36.8397 18.9322 36.3272 22.7899 36.2133 26.6902C36.1422 28.8682 36.1991 31.0603 36.4553 33.224C36.4696 33.3806 36.5977 33.5657 36.7543 33.6226C36.8824 33.6938 36.982 33.6226 36.9678 33.466Z" fill="#FF4D00"/>
</g>
<mask id="mask32_174_666" style="mask-type:luminance" maskUnits="userSpaceOnUse" x="7" y="7" width="57" height="57">
<path d="M35.5873 63.8433C51.1928 63.8433 63.8435 51.1926 63.8435 35.5871C63.8435 19.9816 51.1928 7.33081 35.5873 7.33081C19.9818 7.33081 7.33105 19.9816 7.33105 35.5871C7.33105 51.1926 19.9818 63.8433 35.5873 63.8433Z" fill="white"/>
</mask>
<g mask="url(#mask32_174_666)">
<path d="M36.6399 33.9646C37.7075 31.9433 38.8606 29.9646 40.0563 28.0145C41.2663 26.05 42.5189 24.1141 43.7716 22.1782C45.01 20.2564 46.2485 18.3205 47.43 16.3561C48.6115 14.3917 49.736 12.413 50.7609 10.3632C51.7716 8.32761 52.6684 6.23508 53.4086 4.08561C53.494 3.81515 53.5937 3.54469 53.6791 3.27422C53.7218 3.14611 53.6079 2.96106 53.5225 2.86141C53.494 2.81871 53.2947 2.60519 53.2663 2.7333C52.5688 4.897 51.7147 7.00376 50.7325 9.05359C49.7502 11.1176 48.6399 13.1105 47.4727 15.0749C46.3054 17.0394 45.0812 18.9753 43.8428 20.897C42.5901 22.833 41.3374 24.7689 40.1132 26.7333C38.9033 28.6693 37.7218 30.6479 36.6399 32.655C36.5118 32.9113 36.3695 33.1533 36.2413 33.4095C36.1275 33.5803 36.5545 34.1212 36.6399 33.9646Z" fill="#FF4D00"/>
</g>
<mask id="mask33_174_666" style="mask-type:luminance" maskUnits="userSpaceOnUse" x="7" y="7" width="57" height="57">
<path d="M35.5873 63.8433C51.1928 63.8433 63.8435 51.1926 63.8435 35.5871C63.8435 19.9816 51.1928 7.33081 35.5873 7.33081C19.9818 7.33081 7.33105 19.9816 7.33105 35.5871C7.33105 51.1926 19.9818 63.8433 35.5873 63.8433Z" fill="white"/>
</mask>
<g mask="url(#mask33_174_666)">
<path d="M36.1562 34.3063C36.811 33.438 37.238 32.4131 37.6793 31.4166C38.1491 30.3917 38.5903 29.3526 39.0316 28.3134C39.9142 26.2352 40.754 24.1426 41.5797 22.0501C43.2309 17.8793 44.811 13.68 46.5334 9.53763C47.5014 7.20311 48.512 4.89706 49.5939 2.61948C49.6935 2.40595 49.238 1.87926 49.1242 2.10702C47.1882 6.1782 45.48 10.3633 43.843 14.5483C42.206 18.7191 40.6117 22.9184 38.8608 27.0608C38.3768 28.228 37.8644 29.3811 37.3519 30.5341C36.8537 31.6444 36.3982 32.8117 35.6579 33.7939C35.5583 33.9789 35.9854 34.5341 36.1562 34.3063Z" fill="#FF4D00"/>
</g>
<mask id="mask34_174_666" style="mask-type:luminance" maskUnits="userSpaceOnUse" x="7" y="7" width="57" height="57">
<path d="M35.5873 63.8433C51.1928 63.8433 63.8435 51.1926 63.8435 35.5871C63.8435 19.9816 51.1928 7.33081 35.5873 7.33081C19.9818 7.33081 7.33105 19.9816 7.33105 35.5871C7.33105 51.1926 19.9818 63.8433 35.5873 63.8433Z" fill="white"/>
</mask>
<g mask="url(#mask34_174_666)">
<path d="M36.4555 33.2953C40.3843 31.5444 44.2989 29.7792 48.1993 27.9999C52.0854 26.2205 55.9573 24.4412 59.8292 22.6191C62.0213 21.5942 64.1993 20.5693 66.3914 19.5301C66.5196 19.4732 66.2776 19.4874 66.2491 19.4874C66.0925 19.5017 65.9217 19.5301 65.7793 19.6013C61.8932 21.4376 58.0071 23.2597 54.1067 25.0675C50.2349 26.8611 46.3487 28.6405 42.4484 30.3913C40.242 31.3878 38.0356 32.37 35.8292 33.3522C35.701 33.4091 35.943 33.3949 35.9715 33.3949C36.1281 33.3807 36.3131 33.3522 36.4555 33.2953Z" fill="#FF4D00"/>
</g>
<mask id="mask35_174_666" style="mask-type:luminance" maskUnits="userSpaceOnUse" x="7" y="7" width="57" height="57">
<path d="M35.5873 63.8433C51.1928 63.8433 63.8435 51.1926 63.8435 35.5871C63.8435 19.9816 51.1928 7.33081 35.5873 7.33081C19.9818 7.33081 7.33105 19.9816 7.33105 35.5871C7.33105 51.1926 19.9818 63.8433 35.5873 63.8433Z" fill="white"/>
</mask>
<g mask="url(#mask35_174_666)">
<path d="M36.7832 33.0393C34.7049 32.0998 32.527 31.4877 30.2921 31.0606C28.0288 30.6194 25.7227 30.3916 23.4309 30.1781C20.9825 29.9646 18.5199 29.7653 16.0715 29.566C13.5519 29.3525 11.0323 29.1389 8.51276 28.9396C6.00742 28.7261 3.50208 28.5268 0.996737 28.3133C0.68357 28.2848 0.370403 28.2564 0.0430002 28.2279C-0.056644 28.2137 0.156879 28.4557 0.171114 28.4699C0.256523 28.5553 0.398872 28.6976 0.541221 28.7119C3.03233 28.9254 5.52343 29.1247 8.02877 29.3382C10.5199 29.5517 13.011 29.751 15.5163 29.9646C17.9932 30.1781 20.4701 30.3774 22.9469 30.5909C25.2245 30.7902 27.5021 30.9895 29.7654 31.3596C32.0003 31.7297 34.2067 32.2706 36.3135 33.1247C36.5839 33.2386 36.8544 33.3525 37.1106 33.4663C37.2245 33.5233 37.253 33.4806 37.1818 33.3809C37.0822 33.2386 36.9256 33.0962 36.7832 33.0393Z" fill="#FF4D00"/>
</g>
<mask id="mask36_174_666" style="mask-type:luminance" maskUnits="userSpaceOnUse" x="7" y="7" width="57" height="57">
<path d="M35.5873 63.8433C51.1928 63.8433 63.8435 51.1926 63.8435 35.5871C63.8435 19.9816 51.1928 7.33081 35.5873 7.33081C19.9818 7.33081 7.33105 19.9816 7.33105 35.5871C7.33105 51.1926 19.9818 63.8433 35.5873 63.8433Z" fill="white"/>
</mask>
<g mask="url(#mask36_174_666)">
<path d="M36.3845 33.936C34.2777 30.0356 32.1709 26.1353 30.0357 22.2349C27.9147 18.3488 25.7937 14.4627 23.6727 10.5765C22.477 8.39859 21.2812 6.20642 20.0713 4.02848C20.0143 3.94308 19.8008 3.95731 19.7154 3.95731C19.6869 3.95731 19.3311 3.98578 19.3595 4.04272C21.4948 7.92884 23.63 11.8292 25.7652 15.7153C27.8862 19.6014 30.0072 23.4876 32.114 27.3737C33.2955 29.5659 34.4912 31.758 35.6727 33.9502C35.7154 34.0356 35.9432 34.0214 36.0286 34.0214C36.057 34.0214 36.4129 33.9929 36.3845 33.936Z" fill="#FF4D00"/>
</g>
<mask id="mask37_174_666" style="mask-type:luminance" maskUnits="userSpaceOnUse" x="7" y="7" width="57" height="57">
<path d="M35.5873 63.8433C51.1928 63.8433 63.8435 51.1926 63.8435 35.5871C63.8435 19.9816 51.1928 7.33081 35.5873 7.33081C19.9818 7.33081 7.33105 19.9816 7.33105 35.5871C7.33105 51.1926 19.9818 63.8433 35.5873 63.8433Z" fill="white"/>
</mask>
<g mask="url(#mask37_174_666)">
<path d="M36.0707 33.2666C34.7611 34.9036 33.6792 36.7114 32.6543 38.5477C31.5725 40.4694 30.5048 42.3911 29.4372 44.3128C27.2878 48.199 25.181 52.0993 23.1027 56.0281C21.9354 58.2346 20.7682 60.4552 19.6294 62.6758C19.6294 62.6901 19.9568 62.6758 19.9853 62.6616C20.0564 62.6474 20.2984 62.6474 20.3269 62.5762C22.3767 58.6189 24.4693 54.6758 26.576 50.747C28.6828 46.8466 30.818 42.9605 32.996 39.0886C34.1347 37.053 35.302 35.0175 36.7682 33.1812C36.7682 33.1812 36.4408 33.1812 36.4123 33.1954C36.3269 33.1954 36.1276 33.1954 36.0707 33.2666Z" fill="#FF4D00"/>
</g>
<mask id="mask38_174_666" style="mask-type:luminance" maskUnits="userSpaceOnUse" x="7" y="7" width="57" height="57">
<path d="M35.5873 63.8433C51.1928 63.8433 63.8435 51.1926 63.8435 35.5871C63.8435 19.9816 51.1928 7.33081 35.5873 7.33081C19.9818 7.33081 7.33105 19.9816 7.33105 35.5871C7.33105 51.1926 19.9818 63.8433 35.5873 63.8433Z" fill="white"/>
</mask>
<g mask="url(#mask38_174_666)">
<path d="M36.398 33.2242C35.5296 35.3167 34.7467 37.4377 34.0492 39.5729C33.3375 41.7224 32.7111 43.8861 32.1133 46.064C31.5154 48.2562 30.9603 50.4484 30.4336 52.6405C29.8926 54.8469 29.3802 57.0534 28.8535 59.2598C28.3268 61.4662 27.7859 63.6726 27.2165 65.8648C27.1453 66.1495 27.0741 66.4199 26.9887 66.7046C26.9318 66.9324 27.6151 66.8612 27.672 66.6477C28.2556 64.4555 28.7965 62.2633 29.3232 60.0569C29.8499 57.8505 30.3766 55.6441 30.9033 53.4377C31.43 51.2313 31.9709 49.0391 32.5688 46.8469C33.1524 44.669 33.7788 42.4911 34.462 40.3416C35.1453 38.1921 35.914 36.0569 36.7538 33.9644C36.8677 33.6939 36.9674 33.4234 37.0813 33.1672C37.1667 32.9679 36.4834 33.0249 36.398 33.2242Z" fill="#FF4D00"/>
</g>
<mask id="mask39_174_666" style="mask-type:luminance" maskUnits="userSpaceOnUse" x="7" y="7" width="57" height="57">
<path d="M35.5873 63.8433C51.1928 63.8433 63.8435 51.1926 63.8435 35.5871C63.8435 19.9816 51.1928 7.33081 35.5873 7.33081C19.9818 7.33081 7.33105 19.9816 7.33105 35.5871C7.33105 51.1926 19.9818 63.8433 35.5873 63.8433Z" fill="white"/>
</mask>
<g mask="url(#mask39_174_666)">
<path d="M36.5405 33.4944C34.3625 34.9179 32.1846 36.3556 30.0778 37.8645C27.9711 39.3734 25.9355 40.9819 24.028 42.7613C22.1063 44.5549 20.3127 46.4908 18.4764 48.3841C16.6828 50.2489 14.818 52.0425 12.8394 53.7222C10.875 55.4019 8.82516 56.9677 6.68993 58.4339C6.4337 58.619 6.16324 58.7898 5.90701 58.9606C5.69348 59.103 6.23441 59.5442 6.41946 59.4304C8.54046 58.0069 10.6045 56.4695 12.5689 54.8467C14.5476 53.1955 16.4408 51.4446 18.2487 49.6083C20.0992 47.7293 21.8785 45.7933 23.7718 43.957C25.6508 42.135 27.6721 40.4695 29.7789 38.9179C31.8857 37.3663 34.0636 35.9143 36.2415 34.4908C36.512 34.32 36.7825 34.135 37.0387 33.9642C37.2665 33.8218 36.7255 33.3805 36.5405 33.4944Z" fill="#FF4D00"/>
</g>
<mask id="mask40_174_666" style="mask-type:luminance" maskUnits="userSpaceOnUse" x="7" y="7" width="57" height="57">
<path d="M35.5873 63.8433C51.1928 63.8433 63.8435 51.1926 63.8435 35.5871C63.8435 19.9816 51.1928 7.33081 35.5873 7.33081C19.9818 7.33081 7.33105 19.9816 7.33105 35.5871C7.33105 51.1926 19.9818 63.8433 35.5873 63.8433Z" fill="white"/>
</mask>
<g mask="url(#mask40_174_666)">
<path d="M37.0956 33.2669C34.6899 33.8648 32.2843 34.4484 29.8786 35.0178C27.4729 35.5872 25.0529 36.1281 22.633 36.6406C20.2131 37.1673 17.7931 37.6655 15.359 38.1495C12.9248 38.6335 10.4764 39.1032 8.04225 39.5445C5.60808 39.9858 3.15968 40.4128 0.725516 40.8256C0.426583 40.8826 0.127651 40.9253 -0.185517 40.9822C-0.342101 41.0107 -0.541389 41.0961 -0.584094 41.2669C-0.626798 41.4235 -0.484449 41.5089 -0.342101 41.4804C2.12053 41.0819 4.56893 40.6548 7.01733 40.2135C9.46573 39.7723 11.9284 39.3025 14.3625 38.8185C16.8109 38.3345 19.2451 37.8363 21.6793 37.3096C24.1134 36.7829 26.5476 36.242 28.9675 35.6868C31.3875 35.1317 33.8074 34.5481 36.2273 33.9502C36.5262 33.879 36.8252 33.8078 37.1241 33.7224C37.2522 33.694 37.4658 33.5516 37.4515 33.395C37.423 33.2384 37.2095 33.2384 37.0956 33.2669Z" fill="#FF4D00"/>
</g>
<mask id="mask41_174_666" style="mask-type:luminance" maskUnits="userSpaceOnUse" x="7" y="7" width="57" height="57">
<path d="M35.5873 63.8433C51.1928 63.8433 63.8435 51.1926 63.8435 35.5871C63.8435 19.9816 51.1928 7.33081 35.5873 7.33081C19.9818 7.33081 7.33105 19.9816 7.33105 35.5871C7.33105 51.1926 19.9818 63.8433 35.5873 63.8433Z" fill="white"/>
</mask>
<g mask="url(#mask41_174_666)">
<path d="M36.1564 32.5694C31.829 32.4555 27.5016 32.3986 23.1742 32.4128C18.8468 32.427 14.5194 32.4982 10.192 32.6406C7.75785 32.726 5.32369 32.8114 2.88952 32.9395C2.7187 32.9537 2.77564 33.1388 2.84682 33.2242C2.94646 33.3523 3.11728 33.4662 3.27386 33.4662C7.60127 33.2527 11.9287 33.1103 16.2561 33.0249C20.5835 32.9395 24.9109 32.9253 29.2383 32.968C31.6725 32.9964 34.1066 33.0391 36.5408 33.0961C36.7116 33.0961 36.6404 32.8968 36.5835 32.8114C36.4838 32.669 36.3273 32.5694 36.1564 32.5694Z" fill="#FF4D00"/>
</g>
<mask id="mask42_174_666" style="mask-type:luminance" maskUnits="userSpaceOnUse" x="7" y="7" width="57" height="57">
<path d="M35.5873 63.8433C51.1928 63.8433 63.8435 51.1926 63.8435 35.5871C63.8435 19.9816 51.1928 7.33081 35.5873 7.33081C19.9818 7.33081 7.33105 19.9816 7.33105 35.5871C7.33105 51.1926 19.9818 63.8433 35.5873 63.8433Z" fill="white"/>
</mask>
<g mask="url(#mask42_174_666)">
<path d="M34.2353 33.2386C36.3278 35.1461 38.4346 37.0251 40.5556 38.9041C42.6908 40.7831 44.826 42.6337 46.9897 44.4842C49.1392 46.3205 51.3029 48.1283 53.4808 49.9362C55.6588 51.7297 57.851 53.5091 60.0716 55.2742C62.278 57.0394 64.5129 58.776 66.7478 60.4984C67.0325 60.712 67.3029 60.9255 67.5876 61.139C67.6873 61.2244 67.915 61.1675 68.0289 61.139C68.0716 61.1248 68.3421 61.0394 68.2567 60.9682C66.0075 59.2458 63.7869 57.5091 61.5663 55.7582C59.3456 53.9931 57.1392 52.2137 54.947 50.4059C52.7691 48.6123 50.5912 46.8045 48.4417 44.9682C46.2922 43.1319 44.1428 41.2956 42.0218 39.4308C39.9008 37.566 37.794 35.687 35.7015 33.7796C35.4453 33.5376 35.1748 33.3098 34.9186 33.0678C34.8189 32.9824 34.5769 33.0393 34.4773 33.0678C34.4203 33.082 34.1499 33.1532 34.2353 33.2386Z" fill="#FF4D00"/>
</g>
<mask id="mask43_174_666" style="mask-type:luminance" maskUnits="userSpaceOnUse" x="7" y="7" width="57" height="57">
<path d="M35.5873 63.8433C51.1928 63.8433 63.8435 51.1926 63.8435 35.5871C63.8435 19.9816 51.1928 7.33081 35.5873 7.33081C19.9818 7.33081 7.33105 19.9816 7.33105 35.5871C7.33105 51.1926 19.9818 63.8433 35.5873 63.8433Z" fill="white"/>
</mask>
<g mask="url(#mask43_174_666)">
<path d="M35.9429 33.1956C31.3877 33.281 26.8183 33.4233 22.2631 33.5941C17.708 33.7792 13.1528 34.0069 8.59766 34.2774C6.04961 34.434 3.50157 34.6048 0.953526 34.7899C0.782707 34.8041 0.725768 35.0034 0.768472 35.1457C0.825412 35.3166 0.996231 35.4447 1.18128 35.4304C5.73645 35.103 10.2774 34.8183 14.8325 34.5906C19.3877 34.3628 23.9429 34.1635 28.498 34.0354C31.0461 33.9642 33.5941 33.8931 36.1564 33.8504C36.3272 33.8504 36.3842 33.6368 36.3415 33.4945C36.2845 33.3094 36.1279 33.1956 35.9429 33.1956Z" fill="#FF4D00"/>
</g>
<mask id="mask44_174_666" style="mask-type:luminance" maskUnits="userSpaceOnUse" x="7" y="7" width="57" height="57">
<path d="M35.5873 63.8433C51.1928 63.8433 63.8435 51.1926 63.8435 35.5871C63.8435 19.9816 51.1928 7.33081 35.5873 7.33081C19.9818 7.33081 7.33105 19.9816 7.33105 35.5871C7.33105 51.1926 19.9818 63.8433 35.5873 63.8433Z" fill="white"/>
</mask>
<g mask="url(#mask44_174_666)">
<path d="M36.1137 33.3097C32.4268 35.4023 28.555 37.1247 24.6688 38.7902C20.6546 40.4984 16.6261 42.1923 12.6119 43.8863C10.3201 44.8542 8.02826 45.8222 5.73644 46.7902C5.33787 46.961 5.80762 47.4165 6.10655 47.2884C10.2062 45.5517 14.3058 43.8293 18.4055 42.0927C22.377 40.4129 26.3628 38.7902 30.2631 36.9823C32.4269 35.9859 34.5478 34.9183 36.6119 33.751C36.7685 33.6656 36.7116 33.4806 36.5977 33.3809C36.4696 33.267 36.256 33.2243 36.1137 33.3097Z" fill="#FF4D00"/>
</g>
<mask id="mask45_174_666" style="mask-type:luminance" maskUnits="userSpaceOnUse" x="7" y="7" width="57" height="57">
<path d="M35.5873 63.8433C51.1928 63.8433 63.8435 51.1926 63.8435 35.5871C63.8435 19.9816 51.1928 7.33081 35.5873 7.33081C19.9818 7.33081 7.33105 19.9816 7.33105 35.5871C7.33105 51.1926 19.9818 63.8433 35.5873 63.8433Z" fill="white"/>
</mask>
<g mask="url(#mask45_174_666)">
<path d="M35.5439 32.7826C36.2699 35.2452 36.8963 37.7363 37.4656 40.2417C38.035 42.7613 38.5617 45.2808 39.0884 47.8004C39.6151 50.32 40.1276 52.8538 40.6827 55.3591C41.2379 57.8645 41.85 60.3698 42.5475 62.8324C43.245 65.3093 44.0422 67.7577 44.9674 70.1492C45.0813 70.4481 45.1952 70.7328 45.3233 71.0317C45.3802 71.1883 45.5653 71.3307 45.7361 71.2737C45.9069 71.2168 45.9496 71.0175 45.8927 70.8609C44.9247 68.4837 44.0991 66.0495 43.3874 63.5869C42.6614 61.1243 42.0493 58.6474 41.4799 56.142C40.9105 53.6367 40.3838 51.1029 39.8713 48.5833C39.3447 46.0637 38.8322 43.5299 38.2628 41.0104C37.6934 38.505 37.0813 35.9997 36.3838 33.5228C36.2984 33.2096 36.1987 32.8965 36.1133 32.5833C36.0706 32.4267 35.8571 32.2986 35.7005 32.3413C35.5155 32.4267 35.5012 32.626 35.5439 32.7826Z" fill="#FF4D00"/>
</g>
<mask id="mask46_174_666" style="mask-type:luminance" maskUnits="userSpaceOnUse" x="7" y="7" width="57" height="57">
<path d="M35.5873 63.8433C51.1928 63.8433 63.8435 51.1926 63.8435 35.5871C63.8435 19.9816 51.1928 7.33081 35.5873 7.33081C19.9818 7.33081 7.33105 19.9816 7.33105 35.5871C7.33105 51.1926 19.9818 63.8433 35.5873 63.8433Z" fill="white"/>
</mask>
<g mask="url(#mask46_174_666)">
<path d="M35.9421 33.8362C36.9243 36.1423 37.8923 38.4626 38.8318 40.7971C39.7571 43.1174 40.6396 45.4519 41.4795 47.8149C42.2766 50.0782 43.0311 52.3558 43.7855 54.6334C44.5542 56.911 45.3229 59.1743 46.177 61.4234C47.0311 63.6725 47.9421 65.8932 48.9955 68.0569C49.1236 68.3273 49.2517 68.5978 49.3941 68.854C49.4368 68.9537 49.5934 69.1814 49.7215 69.1672C49.8638 69.153 49.75 68.9252 49.7215 68.8683C48.6539 66.7473 47.7144 64.5551 46.8603 62.3345C46.0062 60.1138 45.2233 57.8505 44.4546 55.5871C43.6859 53.3095 42.9457 51.032 42.1485 48.7544C41.3371 46.4199 40.4688 44.0996 39.572 41.7935C38.661 39.4732 37.693 37.1529 36.725 34.8611C36.5969 34.5764 36.483 34.2917 36.3549 33.9928C36.298 33.8647 36.1841 33.6654 36.0418 33.6227C35.8852 33.58 35.8994 33.7366 35.9421 33.8362Z" fill="#FF4D00"/>
</g>
<mask id="mask47_174_666" style="mask-type:luminance" maskUnits="userSpaceOnUse" x="7" y="7" width="57" height="57">
<path d="M35.5873 63.8433C51.1928 63.8433 63.8435 51.1926 63.8435 35.5871C63.8435 19.9816 51.1928 7.33081 35.5873 7.33081C19.9818 7.33081 7.33105 19.9816 7.33105 35.5871C7.33105 51.1926 19.9818 63.8433 35.5873 63.8433Z" fill="white"/>
</mask>
<g mask="url(#mask47_174_666)">
<path d="M36.4551 33.9215C39.174 31.0176 41.9355 28.1421 44.7398 25.3378C47.5583 22.5193 50.4195 19.7435 53.3377 17.0104C54.9747 15.4873 56.6259 13.9642 58.2914 12.4695C58.3341 12.4268 58.0067 12.2844 57.9782 12.2844C57.8928 12.256 57.6936 12.1706 57.6081 12.256C54.6473 14.9179 51.7434 17.6368 48.8822 20.3983C46.0067 23.1741 43.1882 25.9926 40.4124 28.8539C38.8608 30.4624 37.3092 32.0852 35.7861 33.7222C35.7434 33.7791 36.0708 33.9072 36.0992 33.9072C36.1704 33.9215 36.3839 34.0069 36.4551 33.9215Z" fill="#FF4D00"/>
</g>
<mask id="mask48_174_666" style="mask-type:luminance" maskUnits="userSpaceOnUse" x="7" y="7" width="57" height="57">
<path d="M35.5873 63.8433C51.1928 63.8433 63.8435 51.1926 63.8435 35.5871C63.8435 19.9816 51.1928 7.33081 35.5873 7.33081C19.9818 7.33081 7.33105 19.9816 7.33105 35.5871C7.33105 51.1926 19.9818 63.8433 35.5873 63.8433Z" fill="white"/>
</mask>
<g mask="url(#mask48_174_666)">
<path d="M36.8268 33.4806C41.2111 32.9396 45.5955 32.4414 49.9798 31.9717C54.3642 31.5019 58.7627 31.0749 63.1613 30.6905C65.6239 30.477 68.1008 30.2635 70.5635 30.0642C70.7343 30.05 70.9193 29.9503 70.9763 29.7795C71.0332 29.6371 70.9478 29.4806 70.777 29.4948C66.3784 29.8364 61.9798 30.2208 57.5955 30.6478C53.1969 31.0749 48.8125 31.5304 44.4282 32.0286C41.9656 32.3133 39.5029 32.598 37.0545 32.9112C36.8837 32.9254 36.7129 33.0251 36.6417 33.1959C36.5848 33.3382 36.6702 33.4948 36.8268 33.4806Z" fill="#FF4D00"/>
</g>
<mask id="mask49_174_666" style="mask-type:luminance" maskUnits="userSpaceOnUse" x="7" y="7" width="57" height="57">
<path d="M35.5873 63.8433C51.1928 63.8433 63.8435 51.1926 63.8435 35.5871C63.8435 19.9816 51.1928 7.33081 35.5873 7.33081C19.9818 7.33081 7.33105 19.9816 7.33105 35.5871C7.33105 51.1926 19.9818 63.8433 35.5873 63.8433Z" fill="white"/>
</mask>
<g mask="url(#mask49_174_666)">
<path d="M34.6337 33.523C35.1746 33.6653 35.7013 33.4945 36.1995 33.281C36.712 33.0674 37.2244 32.8255 37.7369 32.5977C38.7903 32.1422 39.8579 31.6867 40.9255 31.2454C43.0465 30.3628 45.1817 29.5087 47.3312 28.6973C49.4807 27.8859 51.6444 27.103 53.8081 26.3486C55.986 25.5941 58.164 24.8824 60.3704 24.2133C62.5625 23.5301 64.7689 22.8895 66.9896 22.2916C67.2601 22.2205 67.5305 22.1493 67.8152 22.0639C68.1426 21.9785 67.8579 21.3379 67.5732 21.4091C65.3668 22.0069 63.1604 22.6333 60.9825 23.3023C58.7903 23.9714 56.6124 24.6689 54.4487 25.3948C52.285 26.1351 50.1213 26.8895 47.986 27.7009C45.8366 28.5123 43.6871 29.3521 41.5661 30.2205C40.5127 30.6617 39.4593 31.103 38.4059 31.5443C37.8792 31.7721 37.3668 31.9998 36.8543 32.2276C36.3419 32.4553 35.8294 32.74 35.2885 32.8682C35.0323 32.9251 34.776 32.9536 34.5198 32.8824C34.349 32.8397 34.2921 33.0247 34.3063 33.1529C34.349 33.3094 34.4629 33.4803 34.6337 33.523Z" fill="#FF4D00"/>
</g>
<mask id="mask50_174_666" style="mask-type:luminance" maskUnits="userSpaceOnUse" x="7" y="7" width="57" height="57">
<path d="M35.5873 63.8433C51.1928 63.8433 63.8435 51.1926 63.8435 35.5871C63.8435 19.9816 51.1928 7.33081 35.5873 7.33081C19.9818 7.33081 7.33105 19.9816 7.33105 35.5871C7.33105 51.1926 19.9818 63.8433 35.5873 63.8433Z" fill="white"/>
</mask>
<g mask="url(#mask50_174_666)">
<path d="M36.185 33.4232C32.7687 31.1456 29.0534 29.3662 25.2526 27.8004C21.4377 26.2488 17.5516 24.9107 13.7082 23.4588C11.5302 22.6474 9.36651 21.7933 7.24551 20.8395C7.08893 20.7684 6.88964 20.8395 6.76153 20.9534C6.66188 21.0388 6.59071 21.2096 6.74729 21.2666C10.5053 22.9321 14.3914 24.3271 18.2491 25.7363C22.0925 27.1456 25.9359 28.5833 29.6228 30.3911C31.6726 31.3876 33.6797 32.5121 35.5872 33.779C35.7295 33.8787 35.9146 33.836 36.0427 33.7506C36.1281 33.7079 36.3274 33.5228 36.185 33.4232Z" fill="#FF4D00"/>
</g>
<mask id="mask51_174_666" style="mask-type:luminance" maskUnits="userSpaceOnUse" x="7" y="7" width="57" height="57">
<path d="M35.5873 63.8433C51.1928 63.8433 63.8435 51.1926 63.8435 35.5871C63.8435 19.9816 51.1928 7.33081 35.5873 7.33081C19.9818 7.33081 7.33105 19.9816 7.33105 35.5871C7.33105 51.1926 19.9818 63.8433 35.5873 63.8433Z" fill="white"/>
</mask>
<g mask="url(#mask51_174_666)">
<path d="M36.5833 33.8507C34.6047 30.0926 32.9819 26.1781 31.3876 22.2492C29.779 18.2919 28.1705 14.3489 26.32 10.5054C25.2381 8.27057 24.1136 6.04993 22.9748 3.84352C22.9036 3.70117 22.7897 3.54459 22.6331 3.47341C22.5192 3.43071 22.4338 3.47341 22.4908 3.60153C24.4979 7.53035 26.4765 11.4592 28.2132 15.5019C29.8929 19.4022 31.4018 23.3738 33.0958 27.2741C34.0495 29.4663 35.0602 31.63 36.1705 33.751C36.2274 33.8649 36.3983 34.0499 36.5406 34.0784C36.6972 34.0926 36.626 33.9361 36.5833 33.8507Z" fill="#FF4D00"/>
</g>
<mask id="mask52_174_666" style="mask-type:luminance" maskUnits="userSpaceOnUse" x="7" y="7" width="57" height="57">
<path d="M35.5873 63.8433C51.1928 63.8433 63.8435 51.1926 63.8435 35.5871C63.8435 19.9816 51.1928 7.33081 35.5873 7.33081C19.9818 7.33081 7.33105 19.9816 7.33105 35.5871C7.33105 51.1926 19.9818 63.8433 35.5873 63.8433Z" fill="white"/>
</mask>
<g mask="url(#mask52_174_666)">
<path d="M35.0456 33.5088C37.1382 34.733 39.2449 35.9572 41.3375 37.1957C43.3873 38.3914 45.4371 39.6156 47.5154 40.7829C49.5225 41.9216 51.5723 42.9893 53.6791 43.943C55.6293 44.8256 57.6079 45.6085 59.5581 46.491C61.4941 47.3594 63.3873 48.3416 65.1382 49.5515C65.3517 49.7081 65.5795 49.8647 65.793 50.0213C65.9069 50.1067 66.1204 50.1209 66.2627 50.1209C66.3197 50.1209 66.519 50.1209 66.4051 50.0355C64.7111 48.7544 62.8321 47.7437 60.9104 46.8469C58.9745 45.9359 56.9958 45.1387 55.0314 44.2846C52.9389 43.3736 50.8891 42.3345 48.8962 41.2241C46.8179 40.0711 44.7823 38.8611 42.7325 37.6654C40.6399 36.4412 38.5332 35.217 36.4407 33.9786C36.1702 33.822 35.914 33.6654 35.6435 33.5088C35.5012 33.4234 35.3161 33.4092 35.1738 33.4092C35.1453 33.4092 34.9175 33.4234 35.0456 33.5088Z" fill="#FF4D00"/>
</g>
<mask id="mask53_174_666" style="mask-type:luminance" maskUnits="userSpaceOnUse" x="7" y="7" width="57" height="57">
<path d="M35.5873 63.8433C51.1928 63.8433 63.8435 51.1926 63.8435 35.5871C63.8435 19.9816 51.1928 7.33081 35.5873 7.33081C19.9818 7.33081 7.33105 19.9816 7.33105 35.5871C7.33105 51.1926 19.9818 63.8433 35.5873 63.8433Z" fill="white"/>
</mask>
<g mask="url(#mask53_174_666)">
<path d="M35.7153 33.2813C37.3808 34.7332 39.089 36.1567 40.8399 37.5233C42.5908 38.904 44.3701 40.2421 46.1922 41.5233C48 42.8044 49.8363 44.0428 51.7153 45.2386C53.5944 46.4343 55.5161 47.6016 57.452 48.6976C59.3737 49.7937 61.3381 50.8471 63.3168 51.8435C63.5588 51.9717 63.815 52.0998 64.057 52.2137C64.2136 52.2848 64.4413 52.2564 64.541 52.1282C64.6549 51.9859 64.5552 51.8293 64.4129 51.7581C62.4342 50.7759 60.4698 49.7368 58.5339 48.6407C56.6122 47.5588 54.7189 46.4343 52.8541 45.267C50.9751 44.0855 49.1246 42.8613 47.3168 41.5802C45.5089 40.3133 43.7296 39.0037 41.9929 37.6514C40.242 36.2848 38.5196 34.8898 36.8399 33.4378C36.6264 33.2528 36.4271 33.082 36.2136 32.8969C35.9573 32.6834 35.3737 32.9966 35.7153 33.2813Z" fill="#FF4D00"/>
</g>
<mask id="mask54_174_666" style="mask-type:luminance" maskUnits="userSpaceOnUse" x="7" y="7" width="57" height="57">
<path d="M35.5873 63.8433C51.1928 63.8433 63.8435 51.1926 63.8435 35.5871C63.8435 19.9816 51.1928 7.33081 35.5873 7.33081C19.9818 7.33081 7.33105 19.9816 7.33105 35.5871C7.33105 51.1926 19.9818 63.8433 35.5873 63.8433Z" fill="white"/>
</mask>
<g mask="url(#mask54_174_666)">
<path d="M35.2738 32.0856C37.8219 35.8578 40.4411 39.5731 43.103 43.26C45.7507 46.9326 48.4696 50.5482 51.2311 54.1354C52.7827 56.1425 54.3486 58.1354 55.9429 60.1141C56.0425 60.2422 56.2276 60.3418 56.3984 60.3418C56.5408 60.3418 56.5835 60.2564 56.498 60.1425C53.6511 56.5838 50.861 52.9966 48.1422 49.3525C45.4233 45.7368 42.7614 42.0642 40.1564 38.3632C38.6902 36.2849 37.2525 34.1924 35.829 32.0998C35.7436 31.9717 35.5301 31.8721 35.3735 31.8721C35.2311 31.8863 35.2027 31.9717 35.2738 32.0856Z" fill="#FF4D00"/>
</g>
</g>
<defs>
<clipPath id="clip0_174_666">
<rect width="71.1744" height="71.1744" fill="white"/>
</clipPath>
</defs>
</svg>
